<svg width="3043" height="889" viewBox="0 0 3043 889" fill="none" xmlns="http://www.w3.org/2000/svg">
<path d="M344.813 732.378C341.975 731.646 333.55 727.708 326.042 723.588C266.797 690.898 220.83 664.618 164.607 631.378C152.245 624.053 138.693 615.995 134.389 613.523C123.676 607.204 121.02 605.007 116.808 599.329C110.764 591.18 108.658 585.319 107.743 574.423C106.735 561.786 106.735 463.35 107.651 463.808C108.109 463.991 123.218 472.507 141.165 482.854L173.947 501.626L173.306 532.301C172.939 549.15 172.573 563.343 172.481 563.801C172.207 565.907 213.413 588.707 287.766 627.624C325.126 647.128 343.348 656.193 346.828 656.926C353.054 658.299 365.874 657.475 371.917 655.369C376.313 653.904 450.483 615.262 477.313 600.52C488.392 594.476 509.178 582.572 527.401 571.767C529.781 570.394 529.781 570.211 530.422 557.025C531.613 529.005 532.437 519.299 533.719 518.108C534.451 517.467 545.531 509.867 558.351 501.168C571.17 492.469 587.378 481.389 594.337 476.719C601.296 471.958 607.157 468.204 607.34 468.387C607.523 468.57 607.34 495.491 607.065 528.181L606.424 587.7L603.769 592.279C598.915 600.52 591.132 607.204 575.291 616.453C475.939 674.965 382.173 727.983 372.467 731.279C365.782 733.569 351.681 734.118 344.813 732.378Z" fill="#030256"/>
<path d="M64.3393 611.966C62.3248 610.501 47.1244 600.062 30.459 588.799L0.241429 568.288L0.0582924 511.149C-0.124844 479.741 0.149861 443.389 0.516134 430.477L1.15711 406.944L8.02474 410.882C11.779 412.988 27.1625 421.687 42.1798 430.111L69.3756 445.495V530.104C69.3756 576.621 69.1009 614.713 68.7346 614.713C68.2767 614.621 66.3538 613.431 64.3393 611.966Z" fill="#030256"/>
<path d="M666.86 565.357C662.648 564.258 658.893 562.06 655.688 558.672C649.92 552.72 649.92 552.354 649.92 514.262C649.92 475.528 649.92 475.528 656.696 469.21L659.992 466.005V430.385C659.992 398.794 659.809 394.856 658.619 395.864C657.428 396.779 657.245 396.688 657.245 394.856C657.245 393.025 658.985 391.651 668.6 386.524C679.038 380.755 684.716 378.923 684.716 381.213C684.716 381.762 684.349 382.128 683.8 382.128C683.159 382.128 682.884 396.688 682.884 423.884V465.639L687.005 470.217C689.203 472.69 691.492 476.261 692.041 478.092C693.232 482.487 693.232 546.31 692.041 550.706C690.851 554.826 685.448 561.236 681.144 563.342C677.207 565.357 670.614 566.272 666.86 565.357Z" fill="#030256"/>
<path d="M340.601 559.588C330.437 557.208 315.878 549.607 290.513 533.675C248.209 507.12 200.868 479.466 126.606 437.802C62.5998 401.816 5.36952 369.035 5.27795 368.21C5.27795 367.203 89.5209 318.031 244.271 229.027C325.493 182.327 342.341 172.804 347.469 171.155C350.216 170.24 355.069 169.599 359.19 169.599H366.241L407.172 192.857C448.194 216.299 562.288 282.045 657.52 337.26C685.539 353.468 708.523 367.112 708.523 367.478C708.523 368.302 676.291 386.707 661.365 394.491C627.577 412.163 600.93 428.462 576.756 446.501C552.033 464.998 529.049 472.69 502.494 471.5C485.646 470.767 472.826 467.837 453.505 460.145C435.924 453.186 422.28 445.586 364.226 410.973C348.843 401.816 328.057 389.454 317.984 383.502C307.911 377.55 298.938 372.148 298.022 371.507C296.465 370.5 297.473 369.401 308.095 360.152C327.049 343.579 336.664 337.535 347.469 335.429C358.915 333.14 372.376 337.901 400.487 354.109C409.461 359.237 426.767 369.218 438.854 376.177C485.829 403.19 498.099 407.768 513.757 403.647C524.013 400.992 532.62 395.864 555.421 378.558C573.277 365.097 572.453 365.738 571.995 365.28C571.445 364.822 476.031 309.515 438.854 288.088C422.28 278.473 398.747 264.921 386.66 257.962L364.684 245.234H358.732C353.97 245.234 351.59 245.875 346.828 248.073C336.939 252.743 139.609 366.104 139.151 367.295C139.059 367.661 145.652 371.873 153.802 376.635C162.043 381.396 182.554 393.3 199.403 403.281C256.267 436.612 298.48 461.336 361.021 497.963C395.268 517.925 423.654 534.682 424.02 535.048C424.753 535.689 393.253 553.82 386.66 556.567C373.932 561.786 354.886 563.068 340.601 559.588Z" fill="#EDAE5A"/>
<path d="M1001.32 595V165.019H1100.83V595H1001.32ZM1233.59 595V165.019H1315.9L1498.95 468.463H1455.34L1635.32 165.019H1717.01L1718.24 595H1624.87L1624.26 308.141H1641.46L1497.72 549.545H1452.88L1306.07 308.141H1326.96V595H1233.59ZM1942.49 338.24H2149.5V415.636H1942.49V338.24ZM1949.86 515.146H2183.9V595H1850.97V165.019H2175.91V244.872H1949.86V515.146ZM2382.86 595V246.101H2245.26V165.019H2619.96V246.101H2482.37V595H2382.86ZM2842.49 602.371C2808.1 602.371 2775.13 597.867 2743.6 588.857C2712.07 579.439 2686.68 567.358 2667.43 552.616L2701.21 477.677C2719.64 490.781 2741.35 501.633 2766.33 510.232C2791.71 518.422 2817.31 522.517 2843.11 522.517C2862.76 522.517 2878.53 520.675 2890.41 516.989C2902.69 512.894 2911.7 507.366 2917.43 500.404C2923.17 493.442 2926.03 485.457 2926.03 476.448C2926.03 464.982 2921.53 455.973 2912.52 449.421C2903.51 442.459 2891.63 436.931 2876.89 432.836C2862.15 428.331 2845.77 424.236 2827.75 420.55C2810.14 416.455 2792.33 411.541 2774.31 405.808C2756.7 400.075 2740.53 392.704 2725.78 383.695C2711.04 374.686 2698.96 362.81 2689.54 348.068C2680.53 333.326 2676.03 314.488 2676.03 291.556C2676.03 266.986 2682.58 244.668 2695.69 224.602C2709.2 204.126 2729.27 187.951 2755.88 176.075C2782.91 163.79 2816.69 157.648 2857.24 157.648C2884.26 157.648 2910.88 160.924 2937.09 167.476C2963.3 173.618 2986.44 183.037 3006.5 195.732L2975.79 271.285C2955.72 259.819 2935.66 251.424 2915.59 246.101C2895.52 240.368 2875.87 237.501 2856.62 237.501C2837.37 237.501 2821.61 239.753 2809.32 244.258C2797.04 248.763 2788.23 254.7 2782.91 262.072C2777.59 269.033 2774.93 277.223 2774.93 286.642C2774.93 297.699 2779.43 306.708 2788.44 313.669C2797.45 320.221 2809.32 325.545 2824.07 329.64C2838.81 333.735 2854.98 337.83 2872.59 341.925C2890.61 346.02 2908.42 350.73 2926.03 356.053C2944.05 361.377 2960.43 368.543 2975.17 377.552C2989.92 386.561 3001.79 398.437 3010.8 413.179C3020.22 427.922 3024.93 446.554 3024.93 469.077C3024.93 493.238 3018.17 515.351 3004.66 535.417C2991.14 555.483 2970.87 571.658 2943.85 583.943C2917.23 596.229 2883.44 602.371 2842.49 602.371Z" fill="#030256"/>
<path d="M1043.05 850.272C1038.99 850.272 1035.35 849.595 1032.12 848.241C1028.9 846.822 1026.35 844.888 1024.48 842.438C1022.61 839.923 1021.58 837.053 1021.39 833.829H1030.48C1030.74 836.473 1031.96 838.633 1034.15 840.31C1036.41 841.986 1039.35 842.824 1042.96 842.824C1046.31 842.824 1048.95 842.083 1050.89 840.6C1052.82 839.117 1053.79 837.247 1053.79 834.99C1053.79 832.668 1052.76 830.959 1050.69 829.863C1048.63 828.702 1045.44 827.574 1041.12 826.478C1037.19 825.446 1033.96 824.414 1031.45 823.382C1029 822.286 1026.87 820.706 1025.06 818.643C1023.32 816.515 1022.45 813.742 1022.45 810.324C1022.45 807.616 1023.26 805.133 1024.87 802.876C1026.48 800.619 1028.77 798.846 1031.74 797.556C1034.7 796.202 1038.09 795.525 1041.89 795.525C1047.76 795.525 1052.5 797.008 1056.11 799.974C1059.72 802.941 1061.66 807.003 1061.92 812.162H1053.11C1052.92 809.389 1051.79 807.164 1049.73 805.488C1047.73 803.811 1045.02 802.973 1041.6 802.973C1038.44 802.973 1035.93 803.65 1034.06 805.004C1032.19 806.358 1031.25 808.132 1031.25 810.324C1031.25 812.065 1031.8 813.516 1032.9 814.677C1034.06 815.773 1035.48 816.676 1037.15 817.385C1038.89 818.03 1041.28 818.772 1044.31 819.61C1048.12 820.642 1051.21 821.674 1053.6 822.705C1055.98 823.673 1058.01 825.156 1059.69 827.155C1061.43 829.154 1062.33 831.765 1062.4 834.99C1062.4 837.891 1061.59 840.503 1059.98 842.824C1058.37 845.146 1056.08 846.984 1053.11 848.338C1050.21 849.628 1046.86 850.272 1043.05 850.272ZM1131.51 822.802C1131.51 817.321 1132.6 812.549 1134.79 808.486C1136.99 804.359 1140.02 801.167 1143.89 798.91C1147.82 796.654 1152.3 795.525 1157.33 795.525C1163.85 795.525 1169.2 797.105 1173.39 800.265C1177.64 803.424 1180.45 807.809 1181.8 813.419H1172.32C1171.42 810.195 1169.65 807.648 1167 805.778C1164.43 803.908 1161.2 802.973 1157.33 802.973C1152.3 802.973 1148.24 804.714 1145.14 808.196C1142.05 811.614 1140.5 816.483 1140.5 822.802C1140.5 829.186 1142.05 834.119 1145.14 837.601C1148.24 841.083 1152.3 842.824 1157.33 842.824C1161.2 842.824 1164.43 841.922 1167 840.116C1169.58 838.311 1171.36 835.731 1172.32 832.378H1181.8C1180.39 837.795 1177.55 842.147 1173.29 845.436C1169.04 848.66 1163.72 850.272 1157.33 850.272C1152.3 850.272 1147.82 849.144 1143.89 846.887C1140.02 844.63 1136.99 841.438 1134.79 837.311C1132.6 833.184 1131.51 828.348 1131.51 822.802ZM1279.83 795.428C1283.83 795.428 1287.44 796.299 1290.66 798.04C1293.89 799.717 1296.4 802.264 1298.21 805.681C1300.08 809.099 1301.01 813.258 1301.01 818.159V849.402H1292.31V819.417C1292.31 814.129 1290.98 810.099 1288.34 807.326C1285.7 804.488 1282.09 803.07 1277.51 803.07C1272.86 803.07 1269.16 804.521 1266.38 807.422C1263.68 810.324 1262.32 814.548 1262.32 820.094V849.402H1253.52V777.824H1262.32V803.94C1264.06 801.232 1266.45 799.136 1269.48 797.653C1272.57 796.17 1276.02 795.428 1279.83 795.428ZM1398.48 850.272C1393.51 850.272 1389 849.144 1384.94 846.887C1380.94 844.63 1377.78 841.438 1375.46 837.311C1373.2 833.12 1372.07 828.283 1372.07 822.802C1372.07 817.385 1373.23 812.613 1375.55 808.486C1377.94 804.295 1381.16 801.103 1385.23 798.91C1389.29 796.654 1393.84 795.525 1398.87 795.525C1403.9 795.525 1408.44 796.654 1412.5 798.91C1416.57 801.103 1419.76 804.263 1422.08 808.39C1424.47 812.517 1425.66 817.321 1425.66 822.802C1425.66 828.283 1424.43 833.12 1421.98 837.311C1419.6 841.438 1416.34 844.63 1412.21 846.887C1408.09 849.144 1403.51 850.272 1398.48 850.272ZM1398.48 842.534C1401.64 842.534 1404.6 841.793 1407.38 840.31C1410.15 838.826 1412.38 836.602 1414.05 833.635C1415.79 830.669 1416.66 827.058 1416.66 822.802C1416.66 818.546 1415.83 814.935 1414.15 811.969C1412.47 809.002 1410.28 806.81 1407.57 805.391C1404.86 803.908 1401.93 803.166 1398.77 803.166C1395.54 803.166 1392.58 803.908 1389.87 805.391C1387.23 806.81 1385.1 809.002 1383.49 811.969C1381.87 814.935 1381.07 818.546 1381.07 822.802C1381.07 827.122 1381.84 830.766 1383.39 833.732C1385 836.698 1387.13 838.923 1389.77 840.406C1392.42 841.825 1395.32 842.534 1398.48 842.534ZM1520.32 850.272C1515.36 850.272 1510.84 849.144 1506.78 846.887C1502.78 844.63 1499.62 841.438 1497.3 837.311C1495.04 833.12 1493.91 828.283 1493.91 822.802C1493.91 817.385 1495.07 812.613 1497.4 808.486C1499.78 804.295 1503.01 801.103 1507.07 798.91C1511.13 796.654 1515.68 795.525 1520.71 795.525C1525.74 795.525 1530.28 796.654 1534.35 798.91C1538.41 801.103 1541.6 804.263 1543.92 808.39C1546.31 812.517 1547.5 817.321 1547.5 822.802C1547.5 828.283 1546.28 833.12 1543.83 837.311C1541.44 841.438 1538.18 844.63 1534.06 846.887C1529.93 849.144 1525.35 850.272 1520.32 850.272ZM1520.32 842.534C1523.48 842.534 1526.45 841.793 1529.22 840.31C1531.99 838.826 1534.22 836.602 1535.89 833.635C1537.63 830.669 1538.51 827.058 1538.51 822.802C1538.51 818.546 1537.67 814.935 1535.99 811.969C1534.31 809.002 1532.12 806.81 1529.41 805.391C1526.7 803.908 1523.77 803.166 1520.61 803.166C1517.39 803.166 1514.42 803.908 1511.71 805.391C1509.07 806.81 1506.94 809.002 1505.33 811.969C1503.72 814.935 1502.91 818.546 1502.91 822.802C1502.91 827.122 1503.68 830.766 1505.23 833.732C1506.84 836.698 1508.97 838.923 1511.62 840.406C1514.26 841.825 1517.16 842.534 1520.32 842.534ZM1627.85 777.824V849.402H1619.04V777.824H1627.85ZM1811.69 850.272C1806.73 850.272 1802.22 849.144 1798.15 846.887C1794.16 844.63 1791 841.438 1788.67 837.311C1786.42 833.12 1785.29 828.283 1785.29 822.802C1785.29 817.385 1786.45 812.613 1788.77 808.486C1791.16 804.295 1794.38 801.103 1798.44 798.91C1802.51 796.654 1807.05 795.525 1812.08 795.525C1817.11 795.525 1821.66 796.654 1825.72 798.91C1829.78 801.103 1832.97 804.263 1835.3 808.39C1837.68 812.517 1838.88 817.321 1838.88 822.802C1838.88 828.283 1837.65 833.12 1835.2 837.311C1832.81 841.438 1829.56 844.63 1825.43 846.887C1821.3 849.144 1816.72 850.272 1811.69 850.272ZM1811.69 842.534C1814.85 842.534 1817.82 841.793 1820.59 840.31C1823.37 838.826 1825.59 836.602 1827.27 833.635C1829.01 830.669 1829.88 827.058 1829.88 822.802C1829.88 818.546 1829.04 814.935 1827.36 811.969C1825.69 809.002 1823.5 806.81 1820.79 805.391C1818.08 803.908 1815.14 803.166 1811.99 803.166C1808.76 803.166 1805.79 803.908 1803.09 805.391C1800.44 806.81 1798.31 809.002 1796.7 811.969C1795.09 814.935 1794.28 818.546 1794.28 822.802C1794.28 827.122 1795.06 830.766 1796.61 833.732C1798.22 836.698 1800.35 838.923 1802.99 840.406C1805.63 841.825 1808.54 842.534 1811.69 842.534ZM1931.99 803.65H1920.87V849.402H1912.06V803.65H1905.2V796.396H1912.06V792.623C1912.06 786.691 1913.58 782.37 1916.61 779.662C1919.7 776.889 1924.64 775.503 1931.41 775.503V782.854C1927.54 782.854 1924.8 783.628 1923.19 785.175C1921.64 786.658 1920.87 789.141 1920.87 792.623V796.396H1931.99V803.65ZM2096.78 806.262C2098.59 803.102 2101.23 800.523 2104.71 798.524C2108.2 796.525 2112.16 795.525 2116.61 795.525C2121.38 795.525 2125.67 796.654 2129.48 798.91C2133.28 801.167 2136.28 804.359 2138.47 808.486C2140.66 812.549 2141.76 817.289 2141.76 822.705C2141.76 828.057 2140.66 832.829 2138.47 837.021C2136.28 841.212 2133.25 844.469 2129.38 846.79C2125.58 849.112 2121.32 850.272 2116.61 850.272C2112.03 850.272 2108 849.273 2104.52 847.274C2101.1 845.275 2098.52 842.728 2096.78 839.632V849.402H2087.98V777.824H2096.78V806.262ZM2132.77 822.705C2132.77 818.707 2131.96 815.225 2130.35 812.259C2128.73 809.292 2126.54 807.036 2123.77 805.488C2121.06 803.94 2118.06 803.166 2114.77 803.166C2111.55 803.166 2108.55 803.973 2105.78 805.585C2103.07 807.132 2100.88 809.421 2099.2 812.452C2097.59 815.419 2096.78 818.868 2096.78 822.802C2096.78 826.8 2097.59 830.314 2099.2 833.345C2100.88 836.311 2103.07 838.601 2105.78 840.213C2108.55 841.76 2111.55 842.534 2114.77 842.534C2118.06 842.534 2121.06 841.76 2123.77 840.213C2126.54 838.601 2128.73 836.311 2130.35 833.345C2131.96 830.314 2132.77 826.768 2132.77 822.705ZM2260.33 796.396V849.402H2251.52V841.567C2249.85 844.275 2247.49 846.403 2244.46 847.951C2241.5 849.434 2238.21 850.176 2234.6 850.176C2230.47 850.176 2226.76 849.337 2223.47 847.661C2220.18 845.92 2217.57 843.34 2215.64 839.923C2213.77 836.505 2212.83 832.346 2212.83 827.445V796.396H2221.54V826.284C2221.54 831.507 2222.86 835.538 2225.5 838.375C2228.15 841.148 2231.76 842.534 2236.34 842.534C2241.05 842.534 2244.75 841.083 2247.46 838.182C2250.17 835.28 2251.52 831.056 2251.52 825.51V796.396H2260.33ZM2353.92 850.272C2349.86 850.272 2346.22 849.595 2342.99 848.241C2339.77 846.822 2337.22 844.888 2335.35 842.438C2333.48 839.923 2332.45 837.053 2332.26 833.829H2341.35C2341.61 836.473 2342.83 838.633 2345.03 840.31C2347.28 841.986 2350.22 842.824 2353.83 842.824C2357.18 842.824 2359.82 842.083 2361.76 840.6C2363.69 839.117 2364.66 837.247 2364.66 834.99C2364.66 832.668 2363.63 830.959 2361.57 829.863C2359.5 828.702 2356.31 827.574 2351.99 826.478C2348.06 825.446 2344.83 824.414 2342.32 823.382C2339.87 822.286 2337.74 820.706 2335.93 818.643C2334.19 816.515 2333.32 813.742 2333.32 810.324C2333.32 807.616 2334.13 805.133 2335.74 802.876C2337.35 800.619 2339.64 798.846 2342.61 797.556C2345.57 796.202 2348.96 795.525 2352.76 795.525C2358.63 795.525 2363.37 797.008 2366.98 799.974C2370.59 802.941 2372.53 807.003 2372.79 812.162H2363.98C2363.79 809.389 2362.66 807.164 2360.6 805.488C2358.6 803.811 2355.89 802.973 2352.47 802.973C2349.31 802.973 2346.8 803.65 2344.93 805.004C2343.06 806.358 2342.12 808.132 2342.12 810.324C2342.12 812.065 2342.67 813.516 2343.77 814.677C2344.93 815.773 2346.35 816.676 2348.02 817.385C2349.76 818.03 2352.15 818.772 2355.18 819.61C2358.99 820.642 2362.08 821.674 2364.47 822.705C2366.85 823.673 2368.88 825.156 2370.56 827.155C2372.3 829.154 2373.2 831.765 2373.27 834.99C2373.27 837.891 2372.46 840.503 2370.85 842.824C2369.24 845.146 2366.95 846.984 2363.98 848.338C2361.08 849.628 2357.73 850.272 2353.92 850.272ZM2450.21 787.787C2448.54 787.787 2447.12 787.207 2445.96 786.046C2444.8 784.885 2444.21 783.466 2444.21 781.79C2444.21 780.113 2444.8 778.695 2445.96 777.534C2447.12 776.373 2448.54 775.793 2450.21 775.793C2451.82 775.793 2453.18 776.373 2454.27 777.534C2455.44 778.695 2456.02 780.113 2456.02 781.79C2456.02 783.466 2455.44 784.885 2454.27 786.046C2453.18 787.207 2451.82 787.787 2450.21 787.787ZM2454.47 796.396V849.402H2445.67V796.396H2454.47ZM2555.27 795.428C2561.71 795.428 2566.94 797.395 2570.94 801.329C2574.93 805.198 2576.93 810.808 2576.93 818.159V849.402H2568.23V819.417C2568.23 814.129 2566.91 810.099 2564.26 807.326C2561.62 804.488 2558.01 803.07 2553.43 803.07C2548.79 803.07 2545.08 804.521 2542.3 807.422C2539.6 810.324 2538.24 814.548 2538.24 820.094V849.402H2529.44V796.396H2538.24V803.94C2539.98 801.232 2542.34 799.136 2545.3 797.653C2548.33 796.17 2551.65 795.428 2555.27 795.428ZM2699.65 820.867C2699.65 822.544 2699.55 824.317 2699.36 826.187H2656.99C2657.31 831.411 2659.08 835.505 2662.31 838.472C2665.6 841.374 2669.56 842.824 2674.21 842.824C2678.01 842.824 2681.17 841.954 2683.69 840.213C2686.26 838.407 2688.07 836.021 2689.1 833.055H2698.58C2697.16 838.149 2694.33 842.309 2690.07 845.533C2685.81 848.693 2680.53 850.272 2674.21 850.272C2669.18 850.272 2664.66 849.144 2660.66 846.887C2656.73 844.63 2653.64 841.438 2651.38 837.311C2649.12 833.12 2647.99 828.283 2647.99 822.802C2647.99 817.321 2649.09 812.517 2651.28 808.39C2653.47 804.263 2656.54 801.103 2660.47 798.91C2664.47 796.654 2669.05 795.525 2674.21 795.525C2679.24 795.525 2683.69 796.621 2687.55 798.814C2691.42 801.006 2694.39 804.037 2696.45 807.906C2698.58 811.711 2699.65 816.031 2699.65 820.867ZM2690.55 819.03C2690.55 815.676 2689.81 812.807 2688.33 810.421C2686.85 807.971 2684.81 806.133 2682.23 804.908C2679.72 803.618 2676.91 802.973 2673.82 802.973C2669.37 802.973 2665.57 804.392 2662.41 807.229C2659.31 810.066 2657.54 814 2657.09 819.03H2690.55ZM2790 850.272C2785.94 850.272 2782.29 849.595 2779.07 848.241C2775.84 846.822 2773.3 844.888 2771.43 842.438C2769.56 839.923 2768.53 837.053 2768.33 833.829H2777.42C2777.68 836.473 2778.91 838.633 2781.1 840.31C2783.36 841.986 2786.29 842.824 2789.9 842.824C2793.26 842.824 2795.9 842.083 2797.83 840.6C2799.77 839.117 2800.74 837.247 2800.74 834.99C2800.74 832.668 2799.7 830.959 2797.64 829.863C2795.58 828.702 2792.39 827.574 2788.06 826.478C2784.13 825.446 2780.91 824.414 2778.39 823.382C2775.94 822.286 2773.81 820.706 2772.01 818.643C2770.27 816.515 2769.4 813.742 2769.4 810.324C2769.4 807.616 2770.2 805.133 2771.81 802.876C2773.43 800.619 2775.72 798.846 2778.68 797.556C2781.65 796.202 2785.03 795.525 2788.84 795.525C2794.71 795.525 2799.45 797.008 2803.06 799.974C2806.67 802.941 2808.6 807.003 2808.86 812.162H2800.06C2799.87 809.389 2798.74 807.164 2796.67 805.488C2794.67 803.811 2791.97 802.973 2788.55 802.973C2785.39 802.973 2782.87 803.65 2781 805.004C2779.13 806.358 2778.2 808.132 2778.2 810.324C2778.2 812.065 2778.75 813.516 2779.84 814.677C2781 815.773 2782.42 816.676 2784.1 817.385C2785.84 818.03 2788.23 818.772 2791.26 819.61C2795.06 820.642 2798.16 821.674 2800.54 822.705C2802.93 823.673 2804.96 825.156 2806.64 827.155C2808.38 829.154 2809.28 831.765 2809.34 834.99C2809.34 837.891 2808.54 840.503 2806.93 842.824C2805.31 845.146 2803.03 846.984 2800.06 848.338C2797.16 849.628 2793.8 850.272 2790 850.272ZM2900.51 850.272C2896.44 850.272 2892.8 849.595 2889.58 848.241C2886.35 846.822 2883.8 844.888 2881.93 842.438C2880.06 839.923 2879.03 837.053 2878.84 833.829H2887.93C2888.19 836.473 2889.41 838.633 2891.61 840.31C2893.86 841.986 2896.8 842.824 2900.41 842.824C2903.76 842.824 2906.41 842.083 2908.34 840.6C2910.28 839.117 2911.24 837.247 2911.24 834.99C2911.24 832.668 2910.21 830.959 2908.15 829.863C2906.08 828.702 2902.89 827.574 2898.57 826.478C2894.64 825.446 2891.41 824.414 2888.9 823.382C2886.45 822.286 2884.32 820.706 2882.51 818.643C2880.77 816.515 2879.9 813.742 2879.9 810.324C2879.9 807.616 2880.71 805.133 2882.32 802.876C2883.93 800.619 2886.22 798.846 2889.19 797.556C2892.16 796.202 2895.54 795.525 2899.35 795.525C2905.21 795.525 2909.95 797.008 2913.56 799.974C2917.18 802.941 2919.11 807.003 2919.37 812.162H2910.57C2910.37 809.389 2909.24 807.164 2907.18 805.488C2905.18 803.811 2902.47 802.973 2899.06 802.973C2895.9 802.973 2893.38 803.65 2891.51 805.004C2889.64 806.358 2888.71 808.132 2888.71 810.324C2888.71 812.065 2889.25 813.516 2890.35 814.677C2891.51 815.773 2892.93 816.676 2894.61 817.385C2896.35 818.03 2898.73 818.772 2901.76 819.61C2905.57 820.642 2908.66 821.674 2911.05 822.705C2913.44 823.673 2915.47 825.156 2917.14 827.155C2918.88 829.154 2919.79 831.765 2919.85 834.99C2919.85 837.891 2919.05 840.503 2917.43 842.824C2915.82 845.146 2913.53 846.984 2910.57 848.338C2907.66 849.628 2904.31 850.272 2900.51 850.272Z" fill="#030256"/>
</svg>
